<svg xmlns="http://www.w3.org/2000/svg" version="1.1" xmlns:xlink="http://www.w3.org/1999/xlink"
	xmlns:svgjs="http://svgjs.dev/svgjs" width="1500" height="261" viewBox="0 0 1500 261">
	<g transform="matrix(1,0,0,1,-0.9090909090909918,-0.5037327677624432)"><svg viewBox="0 0 396 69"
			data-background-color="#ffffff" preserveAspectRatio="xMidYMid meet" height="261" width="1500"
			xmlns="http://www.w3.org/2000/svg" xmlns:xlink="http://www.w3.org/1999/xlink">
			<g id="tight-bounds" transform="matrix(1,0,0,1,0.2400000000000091,0.13317073170730964)"><svg
					viewBox="0 0 395.52 68.73365853658537" height="68.73365853658537" width="395.52">
					<g><svg viewBox="0 0 395.52 68.73365853658537" height="68.73365853658537" width="395.52">
							<g><svg viewBox="0 0 395.52 68.73365853658537" height="68.73365853658537" width="395.52">
									<g id="textblocktransform"><svg viewBox="0 0 395.52 68.73365853658537"
											height="68.73365853658537" width="395.52" id="textblock">
											<g><svg viewBox="0 0 395.52 68.73365853658537" height="68.73365853658537"
													width="395.52">
													<g transform="matrix(1,0,0,1,0,0)"><svg width="395.52"
															viewBox="3.5 -36.95 278.77 48.45" height="68.73365853658537"
															data-palette-color="#ac1464">
															<path
																d="M3.5-36.45L10.85-36.45 19.45-13.35Q19.95-12.05 20.35-10.78 20.75-9.5 21.15-7.95L21.15-7.95Q21.55-9.5 21.9-10.73 22.25-11.95 22.75-13.2L22.75-13.2 31.3-36.45 37.9-36.45 37.9 0 32.85 0 32.85-26.05Q32.85-26.95 32.93-27.8 33-28.65 33.05-29.65L33.05-29.65Q32.75-28.85 32.4-28 32.05-27.15 31.75-26.25L31.75-26.25 22.15 0.05 19.15 0.05 9.4-26.45Q9.1-27.25 8.78-28.1 8.45-28.95 8.2-29.65L8.2-29.65Q8.3-28.75 8.33-27.93 8.35-27.1 8.35-26.25L8.35-26.25 8.35 0 4.2 0 4.2-33.2 3.5-36.45ZM54.55-25.45L54.55-25.45Q58.5-25.45 60.55-23.33 62.6-21.2 62.6-17.25L62.6-17.25 62.6-5.15Q62.6-4 63-3.6 63.4-3.2 64-3.2L64-3.2Q64.45-3.2 64.95-3.33 65.45-3.45 65.9-3.65L65.9-3.65 66.8-0.8Q65.95-0.3 64.7 0.08 63.45 0.45 62.15 0.45L62.15 0.45Q60.75 0.45 59.7-0.28 58.65-1 58.35-2.95L58.35-2.95Q56.9-1.3 54.97-0.38 53.05 0.55 50.85 0.55L50.85 0.55Q47.9 0.55 45.92-1.18 43.95-2.9 43.95-5.95L43.95-5.95Q43.95-8.8 45.3-10.5 46.65-12.2 48.82-13.08 51-13.95 53.45-14.25 55.9-14.55 58.05-14.55L58.05-14.55 58.05-17.35Q58.05-19.4 57.2-20.7 56.35-22 54-22L54-22Q52.15-22 50.42-21.23 48.7-20.45 47.05-19.05L47.05-19.05 44.9-22.25Q47-23.85 49.47-24.65 51.95-25.45 54.55-25.45ZM58.05-9.6L58.05-11.1Q56.75-11.1 55.15-11 53.55-10.9 52.05-10.43 50.55-9.95 49.57-8.95 48.6-7.95 48.6-6.2L48.6-6.2Q48.6-4.65 49.7-3.93 50.8-3.2 52.35-3.2L52.35-3.2Q54.05-3.2 55.32-4.15 56.6-5.1 57.32-6.58 58.05-8.05 58.05-9.6L58.05-9.6ZM77.8-25.5L77.8-25.5Q79.25-25.5 80.55-25.13 81.85-24.75 83.25-24.75L83.25-24.75Q85.2-24.75 87.22-24.98 89.25-25.2 91.4-25.5L91.4-25.5 90.45-21.75 86.4-21.75Q86.05-21.75 85.7-21.8 85.35-21.85 85-21.9L85-21.9Q85.85-20.8 86.27-19.58 86.7-18.35 86.7-17.05L86.7-17.05Q86.7-14.55 85.55-12.55 84.4-10.55 82.25-9.43 80.1-8.3 77.15-8.3L77.15-8.3Q76-8.3 75.1-7.68 74.2-7.05 74.2-5.75L74.2-5.75Q74.2-4.9 74.7-4.53 75.2-4.15 75.95-4.1 76.7-4.05 77.45-4.05L77.45-4.05 81.8-4.05Q83.15-4.05 84.55-3.88 85.95-3.7 87.15-3.18 88.35-2.65 89.07-1.6 89.8-0.55 89.8 1.25L89.8 1.25Q89.8 4 88.67 5.95 87.55 7.9 85.67 9.15 83.8 10.4 81.47 10.95 79.15 11.5 76.8 11.5L76.8 11.5Q75.4 11.5 73.8 11.2 72.2 10.9 70.8 10.18 69.4 9.45 68.52 8.25 67.65 7.05 67.65 5.2L67.65 5.2Q67.65 3.25 68.85 1.75 70.05 0.25 71.65-0.7L71.65-0.7 71.65-0.9Q70.6-1.35 69.95-2.33 69.3-3.3 69.3-4.45L69.3-4.45Q69.3-5.05 69.8-5.6 70.3-6.15 71.1-7.1 71.9-8.05 72.8-9.7L72.8-9.7Q71-10.9 69.92-12.78 68.85-14.65 68.85-16.85L68.85-16.85Q68.85-19.3 70.07-21.25 71.3-23.2 73.35-24.35 75.4-25.5 77.8-25.5ZM77.8-22.3L77.8-22.3Q76.05-22.3 74.82-20.73 73.6-19.15 73.6-16.85L73.6-16.85Q73.6-14.5 74.82-12.93 76.05-11.35 77.75-11.35L77.75-11.35Q79.7-11.35 80.85-12.88 82-14.4 82-16.8L82-16.8Q82-19.15 80.77-20.73 79.55-22.3 77.8-22.3ZM80.55 0.05L74.85 0.05Q73.9 0.7 73.1 1.93 72.3 3.15 72.3 4.3L72.3 4.3Q72.3 5.5 73.15 6.3 74 7.1 75.25 7.5 76.5 7.9 77.55 7.9L77.55 7.9Q79.25 7.9 81.12 7.43 83 6.95 84.3 5.83 85.6 4.7 85.6 2.7L85.6 2.7Q85.6 1.4 84.77 0.85 83.95 0.3 82.8 0.18 81.65 0.05 80.55 0.05L80.55 0.05ZM100.34-33.35L100.34-33.35Q100.34-32.05 99.42-31.1 98.49-30.15 97.09-30.15L97.09-30.15Q95.79-30.15 94.87-31.1 93.94-32.05 93.94-33.35L93.94-33.35Q93.94-34.65 94.87-35.6 95.79-36.55 97.14-36.55L97.14-36.55Q98.44-36.55 99.39-35.6 100.34-34.65 100.34-33.35ZM94.29-24.85L99.44-24.85 99.44 0 94.89 0 94.89-21.95 94.29-24.85ZM117.24-25.45L117.24-25.45Q119.14-25.45 121.09-24.83 123.04-24.2 124.84-22.95L124.84-22.95 122.44-19.85Q121.04-20.95 119.74-21.48 118.44-22 117.14-22L117.14-22Q115.59-22 114.37-21.28 113.14-20.55 112.22-19.25 111.29-17.95 110.82-16.23 110.34-14.5 110.34-12.45L110.34-12.45Q110.34-7.85 112.39-5.4 114.44-2.95 117.64-2.95L117.64-2.95Q119.09-2.95 120.47-3.38 121.84-3.8 123.34-4.7L123.34-4.7 124.74-1.85Q122.69-0.6 120.87 0.03 119.04 0.65 116.69 0.65L116.69 0.65Q113.34 0.65 110.82-1 108.29-2.65 106.87-5.63 105.44-8.6 105.44-12.6L105.44-12.6Q105.44-16.5 107.02-19.4 108.59-22.3 111.29-23.88 113.99-25.45 117.24-25.45ZM139.94-36.95L139.94-36.95Q142.49-36.95 144.91-36.25 147.34-35.55 149.49-34.2L149.49-34.2 146.99-30.65Q145.44-31.8 143.61-32.48 141.79-33.15 139.89-33.15L139.89-33.15Q137.39-33.15 135.59-31.9 133.79-30.65 133.79-27.9L133.79-27.9Q133.79-26.3 134.61-25.2 135.44-24.1 136.84-23.28 138.24-22.45 139.94-21.65L139.94-21.65Q141.69-20.85 143.51-19.9 145.34-18.95 146.89-17.68 148.44-16.4 149.36-14.58 150.29-12.75 150.29-10.1L150.29-10.1Q150.29-6.45 148.54-4.08 146.79-1.7 143.91-0.55 141.04 0.6 137.74 0.6L137.74 0.6Q134.94 0.6 132.31-0.13 129.69-0.85 127.24-2.15L127.24-2.15 129.14-6.55Q130.84-5.1 133.16-4.17 135.49-3.25 137.69-3.25L137.69-3.25Q139.34-3.25 140.99-3.88 142.64-4.5 143.74-5.85 144.84-7.2 144.84-9.3L144.84-9.3Q144.84-11.4 143.79-12.78 142.74-14.15 141.06-15.13 139.39-16.1 137.49-16.95L137.49-16.95Q135.84-17.75 134.21-18.6 132.59-19.45 131.24-20.6 129.89-21.75 129.09-23.38 128.29-25 128.29-27.25L128.29-27.25Q128.29-30.5 129.99-32.65 131.69-34.8 134.36-35.88 137.04-36.95 139.94-36.95ZM158.59-32L161.89-32Q161.54-30.25 161.26-28.43 160.99-26.6 160.89-24.85L160.89-24.85 167.29-24.85 166.44-21.55 160.89-21.55 160.89-6.1Q160.89-5.2 161.09-4.48 161.29-3.75 161.84-3.33 162.39-2.9 163.44-2.9L163.44-2.9Q164.24-2.9 165.04-3.05 165.84-3.2 166.59-3.4L166.59-3.4 167.29-0.4Q166.04-0.05 164.81 0.25 163.59 0.55 162.14 0.55L162.14 0.55Q158.94 0.55 157.64-1.13 156.34-2.8 156.34-5.9L156.34-5.9 156.34-21.55 152.54-21.55 152.54-24.2Q154.54-24.25 155.74-25.53 156.94-26.8 157.59-28.6 158.24-30.4 158.59-32L158.59-32ZM180.73 0.65L180.73 0.65Q177.08 0.65 174.56-1.15 172.03-2.95 170.76-5.9 169.48-8.85 169.48-12.25L169.48-12.25Q169.48-15.65 170.86-18.68 172.23-21.7 174.83-23.58 177.43-25.45 181.03-25.45L181.03-25.45Q184.73-25.45 187.26-23.68 189.78-21.9 191.06-18.95 192.33-16 192.33-12.55L192.33-12.55Q192.33-9.1 190.98-6.1 189.63-3.1 187.03-1.23 184.43 0.65 180.73 0.65ZM180.78-2.7L180.78-2.7Q182.68-2.7 183.96-3.6 185.23-4.5 186.01-5.98 186.78-7.45 187.11-9.15 187.43-10.85 187.43-12.4L187.43-12.4Q187.43-14 187.16-15.7 186.88-17.4 186.16-18.85 185.43-20.3 184.16-21.2 182.88-22.1 180.98-22.1L180.98-22.1Q179.08-22.1 177.81-21.18 176.53-20.25 175.78-18.78 175.03-17.3 174.68-15.63 174.33-13.95 174.33-12.4L174.33-12.4Q174.33-10.9 174.66-9.2 174.98-7.5 175.71-6.03 176.43-4.55 177.68-3.63 178.93-2.7 180.78-2.7ZM196.33-24.75L201.23-25.3Q202.18-23.05 202.38-20.55L202.38-20.55Q203.68-22.6 205.88-23.95 208.08-25.3 210.58-25.3L210.58-25.3 209.58-20.6Q207.23-20.6 205.53-19.38 203.83-18.15 202.48-16.15L202.48-16.15 202.48 0 197.93 0 197.93-18.05Q197.93-19 197.78-20.28 197.63-21.55 197.28-22.75 196.93-23.95 196.33-24.75L196.33-24.75ZM223.38-25.45L223.38-25.45Q227.33-25.45 229.38-23.33 231.43-21.2 231.43-17.25L231.43-17.25 231.43-5.15Q231.43-4 231.83-3.6 232.23-3.2 232.83-3.2L232.83-3.2Q233.28-3.2 233.78-3.33 234.28-3.45 234.73-3.65L234.73-3.65 235.63-0.8Q234.78-0.3 233.53 0.08 232.28 0.45 230.98 0.45L230.98 0.45Q229.58 0.45 228.53-0.28 227.48-1 227.18-2.95L227.18-2.95Q225.73-1.3 223.8-0.38 221.88 0.55 219.68 0.55L219.68 0.55Q216.73 0.55 214.75-1.18 212.78-2.9 212.78-5.95L212.78-5.95Q212.78-8.8 214.13-10.5 215.48-12.2 217.65-13.08 219.83-13.95 222.28-14.25 224.73-14.55 226.88-14.55L226.88-14.55 226.88-17.35Q226.88-19.4 226.03-20.7 225.18-22 222.83-22L222.83-22Q220.98-22 219.25-21.23 217.53-20.45 215.88-19.05L215.88-19.05 213.73-22.25Q215.83-23.85 218.3-24.65 220.78-25.45 223.38-25.45ZM226.88-9.6L226.88-11.1Q225.58-11.1 223.98-11 222.38-10.9 220.88-10.43 219.38-9.95 218.4-8.95 217.43-7.95 217.43-6.2L217.43-6.2Q217.43-4.65 218.53-3.93 219.63-3.2 221.18-3.2L221.18-3.2Q222.88-3.2 224.15-4.15 225.43-5.1 226.15-6.58 226.88-8.05 226.88-9.6L226.88-9.6ZM246.63-25.5L246.63-25.5Q248.07-25.5 249.38-25.13 250.68-24.75 252.07-24.75L252.07-24.75Q254.03-24.75 256.05-24.98 258.07-25.2 260.23-25.5L260.23-25.5 259.27-21.75 255.22-21.75Q254.88-21.75 254.53-21.8 254.18-21.85 253.82-21.9L253.82-21.9Q254.68-20.8 255.1-19.58 255.53-18.35 255.53-17.05L255.53-17.05Q255.53-14.55 254.38-12.55 253.22-10.55 251.07-9.43 248.93-8.3 245.97-8.3L245.97-8.3Q244.82-8.3 243.93-7.68 243.03-7.05 243.03-5.75L243.03-5.75Q243.03-4.9 243.53-4.53 244.03-4.15 244.78-4.1 245.53-4.05 246.28-4.05L246.28-4.05 250.63-4.05Q251.97-4.05 253.38-3.88 254.78-3.7 255.97-3.18 257.18-2.65 257.9-1.6 258.63-0.55 258.63 1.25L258.63 1.25Q258.63 4 257.5 5.95 256.38 7.9 254.5 9.15 252.63 10.4 250.3 10.95 247.97 11.5 245.63 11.5L245.63 11.5Q244.22 11.5 242.63 11.2 241.03 10.9 239.63 10.18 238.22 9.45 237.35 8.25 236.47 7.05 236.47 5.2L236.47 5.2Q236.47 3.25 237.68 1.75 238.88 0.25 240.47-0.7L240.47-0.7 240.47-0.9Q239.43-1.35 238.78-2.33 238.13-3.3 238.13-4.45L238.13-4.45Q238.13-5.05 238.63-5.6 239.13-6.15 239.93-7.1 240.72-8.05 241.63-9.7L241.63-9.7Q239.82-10.9 238.75-12.78 237.68-14.65 237.68-16.85L237.68-16.85Q237.68-19.3 238.9-21.25 240.13-23.2 242.18-24.35 244.22-25.5 246.63-25.5ZM246.63-22.3L246.63-22.3Q244.88-22.3 243.65-20.73 242.43-19.15 242.43-16.85L242.43-16.85Q242.43-14.5 243.65-12.93 244.88-11.35 246.57-11.35L246.57-11.35Q248.53-11.35 249.68-12.88 250.82-14.4 250.82-16.8L250.82-16.8Q250.82-19.15 249.6-20.73 248.38-22.3 246.63-22.3ZM249.38 0.05L243.68 0.05Q242.72 0.7 241.93 1.93 241.13 3.15 241.13 4.3L241.13 4.3Q241.13 5.5 241.97 6.3 242.82 7.1 244.07 7.5 245.32 7.9 246.38 7.9L246.38 7.9Q248.07 7.9 249.95 7.43 251.82 6.95 253.13 5.83 254.43 4.7 254.43 2.7L254.43 2.7Q254.43 1.4 253.6 0.85 252.78 0.3 251.63 0.18 250.47 0.05 249.38 0.05L249.38 0.05ZM272.92-25.45L272.92-25.45Q276.02-25.45 278.1-24.18 280.17-22.9 281.22-20.68 282.27-18.45 282.27-15.6L282.27-15.6Q282.27-14.9 282.2-14.15 282.12-13.4 281.97-12.55L281.97-12.55 266.27-12.55Q266.27-8 268.35-5.5 270.42-3 273.82-3L273.82-3Q275.27-3 276.87-3.45 278.47-3.9 280.17-4.85L280.17-4.85 281.72-2.15Q280.02-0.75 277.72-0.05 275.42 0.65 273.22 0.65L273.22 0.65Q269.32 0.65 266.7-1.15 264.07-2.95 262.77-5.9 261.47-8.85 261.47-12.15L261.47-12.15Q261.47-14.7 262.2-17.05 262.92-19.4 264.37-21.33 265.82-23.25 267.95-24.35 270.07-25.45 272.92-25.45ZM272.57-22.1L272.57-22.1Q270.87-22.1 269.6-21.18 268.32-20.25 267.57-18.8 266.82-17.35 266.57-15.85L266.57-15.85 277.52-15.85Q277.62-17.8 277.02-19.2 276.42-20.6 275.3-21.35 274.17-22.1 272.57-22.1Z"
																opacity="1" transform="matrix(1,0,0,1,0,0)"
																fill="#ac1464" class="wordmark-text-0"
																data-fill-palette-color="primary" id="text-0"></path>
														</svg></g>
												</svg></g>
										</svg></g>
								</svg></g>
							<g></g>
						</svg></g>
					<defs></defs>
				</svg>
				<rect width="395.52" height="68.73365853658537" fill="none" stroke="none" visibility="hidden"></rect>
			</g>
		</svg></g>
</svg>